<mxfile host="app.diagrams.net" modified="2020-10-07T10:25:18.397Z" agent="5.0 (Windows NT 10.0; Win64; x64) AppleWebKit/537.36 (KHTML, like Gecko) Chrome/85.0.4183.121 Safari/537.36" etag="FXrevOHuZIH9xfShdsPI" version="13.7.7" type="github">
  <diagram id="MX2xwm_LDoolrK1x2v9f" name="Page-1">
    <mxGraphModel dx="942" dy="614" grid="1" gridSize="10" guides="1" tooltips="1" connect="1" arrows="1" fold="1" page="1" pageScale="1" pageWidth="850" pageHeight="1100" math="0" shadow="0">
      <root>
        <mxCell id="0" />
        <mxCell id="1" parent="0" />
        <mxCell id="t_AHfMhZ78ogSdsHwydg-1" value="Insurance Company" style="ellipse;whiteSpace=wrap;html=1;" vertex="1" parent="1">
          <mxGeometry x="390" y="240" width="120" height="80" as="geometry" />
        </mxCell>
        <mxCell id="t_AHfMhZ78ogSdsHwydg-2" value="Customer" style="rounded=0;whiteSpace=wrap;html=1;" vertex="1" parent="1">
          <mxGeometry x="60" y="90" width="120" height="60" as="geometry" />
        </mxCell>
        <mxCell id="t_AHfMhZ78ogSdsHwydg-3" value="Garage" style="rounded=0;whiteSpace=wrap;html=1;" vertex="1" parent="1">
          <mxGeometry x="480" y="90" width="120" height="60" as="geometry" />
        </mxCell>
        <mxCell id="t_AHfMhZ78ogSdsHwydg-4" value="Outsourced billing department" style="rounded=0;whiteSpace=wrap;html=1;" vertex="1" parent="1">
          <mxGeometry x="390" y="480" width="120" height="60" as="geometry" />
        </mxCell>
        <mxCell id="t_AHfMhZ78ogSdsHwydg-6" value="" style="endArrow=classic;html=1;exitX=1;exitY=1;exitDx=0;exitDy=0;entryX=0;entryY=1;entryDx=0;entryDy=0;" edge="1" parent="1" source="t_AHfMhZ78ogSdsHwydg-2" target="t_AHfMhZ78ogSdsHwydg-1">
          <mxGeometry relative="1" as="geometry">
            <mxPoint x="210" y="150" as="sourcePoint" />
            <mxPoint x="380" y="270" as="targetPoint" />
          </mxGeometry>
        </mxCell>
        <mxCell id="t_AHfMhZ78ogSdsHwydg-7" value="Submits Claim&lt;br&gt;" style="edgeLabel;resizable=0;html=1;align=center;verticalAlign=middle;" connectable="0" vertex="1" parent="t_AHfMhZ78ogSdsHwydg-6">
          <mxGeometry relative="1" as="geometry" />
        </mxCell>
        <mxCell id="t_AHfMhZ78ogSdsHwydg-8" value="" style="endArrow=classic;html=1;entryX=1;entryY=0.5;entryDx=0;entryDy=0;" edge="1" parent="1" source="t_AHfMhZ78ogSdsHwydg-1" target="t_AHfMhZ78ogSdsHwydg-2">
          <mxGeometry relative="1" as="geometry">
            <mxPoint x="370" y="200" as="sourcePoint" />
            <mxPoint x="220" y="140" as="targetPoint" />
          </mxGeometry>
        </mxCell>
        <mxCell id="t_AHfMhZ78ogSdsHwydg-9" value="Email is sent to notify&lt;br&gt;" style="edgeLabel;resizable=0;html=1;align=center;verticalAlign=middle;" connectable="0" vertex="1" parent="t_AHfMhZ78ogSdsHwydg-8">
          <mxGeometry relative="1" as="geometry" />
        </mxCell>
        <mxCell id="t_AHfMhZ78ogSdsHwydg-10" value="" style="endArrow=classic;html=1;entryX=0;entryY=0.5;entryDx=0;entryDy=0;" edge="1" parent="1" source="t_AHfMhZ78ogSdsHwydg-1" target="t_AHfMhZ78ogSdsHwydg-3">
          <mxGeometry relative="1" as="geometry">
            <mxPoint x="450" y="180" as="sourcePoint" />
            <mxPoint x="550" y="180" as="targetPoint" />
          </mxGeometry>
        </mxCell>
        <mxCell id="t_AHfMhZ78ogSdsHwydg-11" value="Checks assesment" style="edgeLabel;resizable=0;html=1;align=center;verticalAlign=middle;" connectable="0" vertex="1" parent="t_AHfMhZ78ogSdsHwydg-10">
          <mxGeometry relative="1" as="geometry" />
        </mxCell>
        <mxCell id="t_AHfMhZ78ogSdsHwydg-12" value="" style="endArrow=classic;html=1;entryX=1.025;entryY=0.388;entryDx=0;entryDy=0;entryPerimeter=0;" edge="1" parent="1" source="t_AHfMhZ78ogSdsHwydg-3" target="t_AHfMhZ78ogSdsHwydg-1">
          <mxGeometry relative="1" as="geometry">
            <mxPoint x="600" y="190" as="sourcePoint" />
            <mxPoint x="700" y="190" as="targetPoint" />
            <Array as="points">
              <mxPoint x="480" y="200" />
            </Array>
          </mxGeometry>
        </mxCell>
        <mxCell id="t_AHfMhZ78ogSdsHwydg-13" value="Gives quote&lt;br&gt;" style="edgeLabel;resizable=0;html=1;align=center;verticalAlign=middle;" connectable="0" vertex="1" parent="t_AHfMhZ78ogSdsHwydg-12">
          <mxGeometry relative="1" as="geometry" />
        </mxCell>
        <mxCell id="t_AHfMhZ78ogSdsHwydg-14" value="" style="endArrow=classic;html=1;" edge="1" parent="1" target="t_AHfMhZ78ogSdsHwydg-3">
          <mxGeometry relative="1" as="geometry">
            <mxPoint x="500" y="260" as="sourcePoint" />
            <mxPoint x="630" y="210" as="targetPoint" />
          </mxGeometry>
        </mxCell>
        <mxCell id="t_AHfMhZ78ogSdsHwydg-15" value="Quote approved&lt;br&gt;" style="edgeLabel;resizable=0;html=1;align=center;verticalAlign=middle;" connectable="0" vertex="1" parent="t_AHfMhZ78ogSdsHwydg-14">
          <mxGeometry relative="1" as="geometry">
            <mxPoint x="24.34" y="-15.19" as="offset" />
          </mxGeometry>
        </mxCell>
        <mxCell id="t_AHfMhZ78ogSdsHwydg-17" value="" style="endArrow=classic;html=1;entryX=0.667;entryY=0;entryDx=0;entryDy=0;entryPerimeter=0;" edge="1" parent="1" target="t_AHfMhZ78ogSdsHwydg-4">
          <mxGeometry relative="1" as="geometry">
            <mxPoint x="460" y="320" as="sourcePoint" />
            <mxPoint x="560" y="320" as="targetPoint" />
          </mxGeometry>
        </mxCell>
        <mxCell id="t_AHfMhZ78ogSdsHwydg-18" value="Send invoice&lt;br&gt;" style="edgeLabel;resizable=0;html=1;align=center;verticalAlign=middle;" connectable="0" vertex="1" parent="t_AHfMhZ78ogSdsHwydg-17">
          <mxGeometry relative="1" as="geometry" />
        </mxCell>
        <mxCell id="t_AHfMhZ78ogSdsHwydg-19" value="" style="endArrow=classic;html=1;entryX=0.4;entryY=1.013;entryDx=0;entryDy=0;entryPerimeter=0;exitX=0;exitY=0;exitDx=0;exitDy=0;" edge="1" parent="1" source="t_AHfMhZ78ogSdsHwydg-4" target="t_AHfMhZ78ogSdsHwydg-1">
          <mxGeometry relative="1" as="geometry">
            <mxPoint x="370" y="450" as="sourcePoint" />
            <mxPoint x="470" y="450" as="targetPoint" />
            <Array as="points">
              <mxPoint x="400" y="400" />
            </Array>
          </mxGeometry>
        </mxCell>
        <mxCell id="t_AHfMhZ78ogSdsHwydg-20" value="Receipt&amp;nbsp;&lt;br&gt;" style="edgeLabel;resizable=0;html=1;align=center;verticalAlign=middle;" connectable="0" vertex="1" parent="t_AHfMhZ78ogSdsHwydg-19">
          <mxGeometry relative="1" as="geometry" />
        </mxCell>
      </root>
    </mxGraphModel>
  </diagram>
</mxfile>
